<svg xmlns="http://www.w3.org/2000/svg" viewBox="0 0 443.89 281.36"><defs><style>.cls-1{opacity:0.18;}.cls-10,.cls-2{fill:#ef5252;}.cls-2{opacity:1;}.cls-3,.cls-6,.cls-9{fill:#fabfbe;}.cls-4{fill:#3e3d54;}.cls-5{fill:#3f3d4b;}.cls-6,.cls-9{stroke:#e5b3b3;}.cls-10,.cls-11,.cls-6,.cls-9{stroke-miterlimit:10;}.cls-7{fill:#42404e;}.cls-8{fill:#464452;}.cls-10,.cls-9{stroke-width:0.75px;}.cls-10{stroke:#ed6e6e;}.cls-11{fill:#3e3d56;stroke:#47475e;}.cls-12{fill:#ddddf2;}</style></defs><title>Ativo 1ArtPort</title><g id="Camada_2" data-name="Camada 2"><g id="fundo" class="cls-1"><path class="cls-2" d="M137.81,13s-79.1-33.4-104.64,6.92a41.17,41.17,0,0,0-5.36,13.64c-5.72,27.31-4,43.17,8,57.94A49.41,49.41,0,0,1,47.12,126.3c-1.34,17.25-10.68,40-39.31,71.69-32.08,50.55,43.59,73.7,65.28,74.94,1.26.08,2.5.15,3.75.27,25.94,2.57,196.91,14.45,289,3.79,28-3,61-5,75-28,7-19,5-30-38-55-16-11-43-20-11-65,31-36,58-64,27-99C397.61,10.63,357.71-.23,329.67,24a78.93,78.93,0,0,1-32.23,17.27C263.23,49.92,209.41,46.86,137.81,13Z"/></g><g id="Sapatos"><polygon class="cls-3" points="171.81 260.99 181.81 260.99 182.81 255.99 172.81 253.99 171.81 260.99"/><path class="cls-3" d="M255.81,250a34.83,34.83,0,0,0,14,1c0,2,4,8,4,8l-5,13s-13-6-18-5C249.81,264,255.81,250,255.81,250Z"/><path class="cls-4" d="M173.81,254s-1,18-13,13c-18-1-22,1-22,1s-27,7-19-16a27,27,0,0,1,14-15S146.81,251,173.81,254Z"/><polygon class="cls-5" points="156.81 210.99 272.81 208.99 273.81 239.99 154.81 232.99 156.81 210.99"/></g><g id="Braço"><path class="cls-6" d="M136.81,163s0,40,4,46c2,0,25-2,25-2V191l-5,1a66.76,66.76,0,0,0,5-25S151.81,160,136.81,163Z"/></g><g id="Pernas"><path class="cls-7" d="M180.81,255s3,3,0,6c2,2,17,8,37,2C219.81,260,180.81,255,180.81,255Z"/><path class="cls-7" d="M215.81,237s16-13,35-11c2-1,3-4,8-2,1-1-1-6,4-5,0-2-3-6,4-6s5-6,5-6,23,1,24,8c3,5,14,14,5,28-5,6-14,11-14,11l-69-7Z"/><path class="cls-4" d="M293.41,249.3c-4.73-1.25-10.32-2.23-12.46-.62-5,1-8,0-9-1-1.78.89-6.72,2.57-2.87,9.25a10.09,10.09,0,0,1-.67,11.41,12.38,12.38,0,0,1-2.46,2.34s1,10,26,6c7-1,16,2,16,2s22,8,21-12c-4-15-3-15-16-19a13.75,13.75,0,0,0-7.07.9A19.87,19.87,0,0,1,293.41,249.3Z"/><path class="cls-8" d="M162.81,208s-4-6.46-17.17-4.15a36.12,36.12,0,0,1-7.64.33c-2.3-.07-6.19,4.82-7.19,8.82-3,3-10,10,0,23,9,7,19,18,46,19,19,5,24,9,42,8,11,4,15,10,26,9,4,1,7,1,8-1v-4s-3-7,4-17a15.77,15.77,0,0,0,1-4s-5-5-14-1c-5-3-8-7-16-3-5-2-41-20-52-20-2-2-3-5-6-4-2-2-5-7-7-7Z"/></g><g id="Pescoço"><path class="cls-9" d="M176.81,111s9,1,6-10c1-1,27-6,27-6s0,11,11,12c1,3-1,18-1,18l-26,8-16-8Z"/></g><g id="Rosto"><g id="Camisa"><path class="cls-10" d="M177.81,110s7.6,24.29,28.07,18.64a19.57,19.57,0,0,0,14.45-16.35,13.34,13.34,0,0,0-.52-6.29s2-4,16,7c4,0,10,1,10,5,2,0,17,0,17,32h-97v18.26s-6-9.26-29-5.26c-1,1-3-1-1-3,2,0,1-4,1-4s6-40,17-34c0-2,1-4,7-3,1-1,5-6,8-4C170.81,113,175.81,106,177.81,110Z"/></g><path class="cls-11" d="M171.81,87s-13-19-9-22c0,0-8-21,10-21,12-1,17,1,17,1s14-1,18,3c4,1,13,7,11,15,0,3-1.38,18.66-1.38,18.66Z"/><path class="cls-9" d="M169.7,81.35l4,10.65a14.74,14.74,0,0,0,4,5.79c6.87,6.14,24.84,18.25,38.29-7.84a14.61,14.61,0,0,0,1.52-7.86C217,77,216.9,73,216.84,70.85a14,14,0,0,0-2.29-7.53c-2.79-4.14-8.93-8.39-22.26-4.47l-.95.25c-12,2.69-22.21,2.19-22.58,16.87A14.56,14.56,0,0,0,169.7,81.35Z"/></g><g id="Camada_9" data-name="Camada 9"><rect class="cls-4" x="162.81" y="146.99" width="111" height="66" rx="2.98"/><path class="cls-12" d="M212.36,176h1.92c1.16,0,1.82.64,1.82,1.56,0,1.27-.94,1.88-2.26,1.88h-1.1l-.44,2.07h-1.11Zm.57,2.54h.85c.74,0,1.15-.28,1.15-.91s-.28-.73-.87-.73h-.78Z"/><path class="cls-12" d="M221.75,178.23c0,1.7-.94,3.38-3,3.38a2,2,0,0,1-2.18-2.22,3.19,3.19,0,0,1,3-3.45A2.08,2.08,0,0,1,221.75,178.23Zm-4.05,1.12c0,.83.38,1.36,1.16,1.36,1.24,0,1.74-1.34,1.74-2.49,0-.81-.33-1.38-1.13-1.38C218.3,176.84,217.7,178.18,217.7,179.35Z"/><path class="cls-12" d="M223.79,179.29l-.47,2.24H222.2l1.17-5.51h2.1c1.05,0,1.68.53,1.68,1.44A1.43,1.43,0,0,1,226,178.9c.22.11.65.38.45,1.31a5.48,5.48,0,0,0-.19,1.32h-1.07a4.4,4.4,0,0,1,.16-1.32c.13-.6,0-.92-.59-.92Zm.19-.91h.93c.64,0,1.09-.22,1.09-.81,0-.42-.24-.65-.8-.65h-.91Z"/><path class="cls-12" d="M229.24,176.94h-1.6l.19-.92h4.34l-.2.92h-1.6l-1,4.59h-1.13Z"/></g></g></svg>