<svg xmlns="http://www.w3.org/2000/svg" viewBox="0 0 494.89 325.78"><defs><style>.cls-1,.cls-9{fill:#ef5252;}.cls-1{opacity:0.3;}.cls-2,.cls-5,.cls-8{fill:#fabfbe;}.cls-3{fill:#3e3d54;}.cls-4{fill:#3f3d4b;}.cls-5,.cls-8{stroke:#e5b3b3;}.cls-10,.cls-5,.cls-8,.cls-9{stroke-miterlimit:10;}.cls-6{fill:#42404e;}.cls-7{fill:#464452;}.cls-8,.cls-9{stroke-width:0.75px;}.cls-9{stroke:#ed6e6e;}.cls-10{fill:#3e3d56;stroke:#47475e;}.cls-11{fill:#ddddf2;}</style></defs><title>Ativo 3ArtPort</title><g id="Camada_2" data-name="Camada 2"><g id="fundo"><path class="cls-1" d="M137.81,57s-79.1-33.4-104.64,6.92a41.17,41.17,0,0,0-5.36,13.64c-5.72,27.31-4,43.17,8,57.94A49.41,49.41,0,0,1,47.12,170.3c-1.34,17.25-10.68,40-39.31,71.69-32.08,50.55,43.59,73.7,65.28,74.94,1.26.08,2.5.15,3.75.27,25.94,2.57,196.91,14.45,289,3.79,28-3,61-5,75-28,7-19,5-30-38-55-16-11-43-20-11-65,31-36,58-64,27-99-21.2-19.36-61.1-30.22-89.14-5.95a78.93,78.93,0,0,1-32.23,17.27C263.23,93.92,209.41,90.86,137.81,57Z"/><path class="cls-1" d="M188.81,13s-79.1-33.4-104.64,6.92a41.17,41.17,0,0,0-5.36,13.64c-5.72,27.31-4,43.17,8,57.94A49.41,49.41,0,0,1,98.12,126.3c-1.34,17.25-10.68,40-39.31,71.69-32.08,50.55,43.59,73.7,65.28,74.94,1.26.08,2.5.15,3.75.27,25.94,2.57,196.91,14.45,289,3.79,28-3,61-5,75-28,7-19,5-30-38-55-16-11-43-20-11-65,31-36,58-64,27-99C448.61,10.63,408.71-.23,380.67,24a78.93,78.93,0,0,1-32.23,17.27C314.23,49.92,260.41,46.86,188.81,13Z"/></g><g id="Sapatos"><polygon class="cls-2" points="194.22 306.51 204.22 306.51 205.22 301.51 195.22 299.51 194.22 306.51"/><path class="cls-2" d="M278.22,295.51a34.83,34.83,0,0,0,14,1c0,2,4,8,4,8l-5,13s-13-6-18-5C272.22,309.51,278.22,295.51,278.22,295.51Z"/><path class="cls-3" d="M196.22,299.51s-1,18-13,13c-18-1-22,1-22,1s-27,7-19-16a27,27,0,0,1,14-15S169.22,296.51,196.22,299.51Z"/><polygon class="cls-4" points="179.22 256.51 295.22 254.51 296.22 285.51 177.22 278.51 179.22 256.51"/></g><g id="Braço"><path class="cls-5" d="M159.22,208.51s0,40,4,46c2,0,25-2,25-2v-16l-5,1a66.76,66.76,0,0,0,5-25S174.22,205.51,159.22,208.51Z"/></g><g id="Pernas"><path class="cls-6" d="M203.22,300.51s3,3,0,6c2,2,17,8,37,2C242.22,305.51,203.22,300.51,203.22,300.51Z"/><path class="cls-6" d="M238.22,282.51s16-13,35-11c2-1,3-4,8-2,1-1-1-6,4-5,0-2-3-6,4-6s5-6,5-6,23,1,24,8c3,5,14,14,5,28-5,6-14,11-14,11l-69-7Z"/><path class="cls-3" d="M315.81,294.82c-4.73-1.25-10.31-2.23-12.46-.62-5,1-8,0-9-1-1.77.89-6.71,2.57-2.87,9.25a10.09,10.09,0,0,1-.67,11.41,12.38,12.38,0,0,1-2.46,2.34s1,10,26,6c7-1,16,2,16,2s22,8,21-12c-4-15-3-15-16-19a13.71,13.71,0,0,0-7.06.9A19.91,19.91,0,0,1,315.81,294.82Z"/><path class="cls-7" d="M185.22,253.51s-4-6.46-17.18-4.15a36.12,36.12,0,0,1-7.64.33c-2.29-.07-6.18,4.82-7.18,8.82-3,3-10,10,0,23,9,7,19,18,46,19,19,5,24,9,42,8,11,4,15,10,26,9,4,1,7,1,8-1v-4s-3-7,4-17a15.77,15.77,0,0,0,1-4s-5-5-14-1c-5-3-8-7-16-3-5-2-41-20-52-20-2-2-3-5-6-4-2-2-5-7-7-7Z"/></g><g id="Pescoço"><path class="cls-8" d="M199.22,156.51s9,1,6-10c1-1,27-6,27-6s0,11,11,12c1,3-1,18-1,18l-26,8-16-8Z"/></g><g id="Rosto"><g id="Camisa"><path class="cls-9" d="M200.22,155.51s7.59,24.29,28.07,18.64a19.56,19.56,0,0,0,14.44-16.35,13.27,13.27,0,0,0-.51-6.29s2-4,16,7c4,0,10,1,10,5,2,0,17,0,17,32h-97v18.26s-6-9.26-29-5.26c-1,1-3-1-1-3,2,0,1-4,1-4s6-40,17-34c0-2,1-4,7-3,1-1,5-6,8-4C193.22,158.51,198.22,151.51,200.22,155.51Z"/></g><path class="cls-10" d="M194.22,132.51s-13-19-9-22c0,0-8-21,10-21,12-1,17,1,17,1s14-1,18,3c4,1,13,7,11,15,0,3-1.39,18.66-1.39,18.66Z"/><path class="cls-8" d="M192.1,126.87l4,10.65a14.61,14.61,0,0,0,4,5.79c6.87,6.14,24.84,18.25,38.29-7.84a14.43,14.43,0,0,0,1.52-7.86c-.41-5.08-.56-9.06-.61-11.24a14.07,14.07,0,0,0-2.3-7.53c-2.79-4.14-8.93-8.39-22.26-4.47l-.95.25c-12,2.69-22.21,2.19-22.58,16.87A14.56,14.56,0,0,0,192.1,126.87Z"/></g><g id="Camada_9" data-name="Camada 9"><rect class="cls-3" x="185.22" y="192.51" width="111" height="66" rx="2.98"/><path class="cls-11" d="M234.76,221.54h1.93c1.15,0,1.82.64,1.82,1.56,0,1.27-.95,1.89-2.26,1.89h-1.11l-.43,2.06h-1.12Zm.57,2.54h.85c.75,0,1.15-.28,1.15-.91,0-.48-.28-.73-.87-.73h-.78Z"/><path class="cls-11" d="M244.15,223.75c0,1.7-.94,3.38-3,3.38a2,2,0,0,1-2.17-2.22,3.18,3.18,0,0,1,3-3.45A2.07,2.07,0,0,1,244.15,223.75Zm-4,1.12c0,.83.38,1.36,1.15,1.36,1.24,0,1.74-1.34,1.74-2.49,0-.81-.33-1.38-1.13-1.38C240.7,222.36,240.11,223.7,240.11,224.87Z"/><path class="cls-11" d="M246.2,224.81l-.48,2.24H244.6l1.17-5.51h2.1c1,0,1.68.53,1.68,1.44a1.43,1.43,0,0,1-1.13,1.44c.22.11.65.38.45,1.31a4.86,4.86,0,0,0-.18,1.32h-1.08a4.77,4.77,0,0,1,.16-1.32c.13-.6,0-.92-.58-.92Zm.18-.91h.93c.64,0,1.09-.22,1.09-.81,0-.42-.23-.65-.8-.65h-.91Z"/><path class="cls-11" d="M251.65,222.46H250l.2-.92h4.34l-.2.92h-1.61l-1,4.59h-1.12Z"/></g></g></svg>