<svg width="20" height="20" viewBox="0 0 20 20" fill="none" xmlns="http://www.w3.org/2000/svg">
<path d="M4.1525 5.9975C5.15949 5.9975 5.97583 5.18116 5.97583 4.17416C5.97583 3.16716 5.15949 2.35083 4.1525 2.35083C3.1455 2.35083 2.32916 3.16716 2.32916 4.17416C2.32916 5.18116 3.1455 5.9975 4.1525 5.9975Z" fill="#FBFBFF"/>
<path d="M7.6975 7.08084V17.1967H10.8383V12.1942C10.8383 10.8742 11.0867 9.59584 12.7233 9.59584C14.3375 9.59584 14.3575 11.105 14.3575 12.2775V17.1975H17.5V11.65C17.5 8.92501 16.9133 6.83084 13.7283 6.83084C12.1992 6.83084 11.1742 7.67001 10.755 8.46417H10.7125V7.08084H7.6975ZM2.57916 7.08084H5.725V17.1967H2.57916V7.08084Z" fill="#FBFBFF"/>
</svg>
