<svg xmlns="http://www.w3.org/2000/svg" viewBox="0 0 70 70"><defs><style>.cls-1{fill:#23253b;}.cls-2{fill:#e6e6e6;}.cls-3{fill:#ed1c24;}</style></defs><title>Ativo 4LogoPortif</title><g id="Camada_2" data-name="Camada 2"><g id="Camada_1-2" data-name="Camada 1"><rect class="cls-1" width="70" height="70" rx="35"/><path class="cls-2" d="M30.69,49.49l1.78-12.34c.45-3,1.09-6.94,1.91-11.2h-.14c-1.58,3.95-3.31,7.92-4.74,10.87L23.68,49H18.93L18,36.88c-.21-3-.43-6.91-.5-10.93h-.1c-.84,4-1.68,8.19-2.4,11.21L12.09,49.49H6.46L14.1,19.16H22l.84,12.39c.14,2.66.4,6,.38,9h.16c1-3,2.49-6.44,3.67-9l5.68-12.38h7.94L36.57,49.49Z"/><path class="cls-3" d="M47.23,19.68A35.32,35.32,0,0,1,54.59,19c2.51,0,5.62.44,7.71,2.13a7.43,7.43,0,0,1,2.86,6.09,10.94,10.94,0,0,1-4,8.68A14.63,14.63,0,0,1,52,38.65a21.88,21.88,0,0,1-2.28-.15l-2.1,11H41.57ZM50.71,33.4a10.6,10.6,0,0,0,2.07.18A5.84,5.84,0,0,0,58.9,27.7c0-2.65-1.75-3.74-4.17-3.74a10.81,10.81,0,0,0-2.25.18Z"/></g></g></svg>