<svg width="30" height="30" viewBox="0 0 30 30" fill="none" xmlns="http://www.w3.org/2000/svg">
<path d="M22.2031 18.3996C22.2031 19.7137 22.5766 20.2378 23.5531 20.2378C25.7297 20.2378 27.1156 17.4609 27.1156 12.8426C27.1156 5.78379 21.9781 2.40457 15.5641 2.40457C8.96563 2.40457 2.96406 6.83511 2.96406 15.2081C2.96406 23.2056 8.21406 27.561 16.2766 27.561C19.0141 27.561 20.8516 27.2606 23.6625 26.322L24.2656 28.836C21.4906 29.7387 18.525 30 16.2391 30C5.66406 30 0 24.1802 0 15.2065C0 6.1577 6.56406 0 15.6016 0C25.0141 0 30 5.63204 30 12.5407C30 18.398 28.1641 22.8661 22.3891 22.8661C19.7625 22.8661 18.0391 21.8148 17.8141 19.4853C17.1391 22.076 15.3391 22.8661 12.9 22.8661C9.6375 22.8661 6.9 20.3489 6.9 15.2816C6.9 10.1752 9.30156 7.02128 13.6141 7.02128C15.9016 7.02128 17.3266 7.9224 17.9609 9.34919L19.05 7.3592H22.2V18.3996H22.2031ZM17.5922 13.4434C17.5922 11.3798 16.0531 10.5147 14.7781 10.5147C13.3906 10.5147 11.8547 11.6395 11.8547 14.9452C11.8547 17.5735 13.0172 19.0379 14.7781 19.0379C16.0156 19.0379 17.5922 18.2494 17.5922 16.0717V13.4434Z" fill="#FBFBFF" fill-opacity="0.83"/>
</svg>
